<?xml version="1.0" encoding="UTF-8" standalone="no"?>
<svg
   xmlns:dc="http://purl.org/dc/elements/1.1/"
   xmlns:cc="http://creativecommons.org/ns#"
   xmlns:rdf="http://www.w3.org/1999/02/22-rdf-syntax-ns#"
   xmlns:svg="http://www.w3.org/2000/svg"
   xmlns="http://www.w3.org/2000/svg"
   height="100"
   width="100"
   xml:space="preserve"
   viewBox="0 0 100 100"
   y="0px"
   x="0px"
   id="Capa_1"
   version="1.1"><metadata
     id="metadata45"><rdf:RDF><cc:Work
         rdf:about=""><dc:format>image/svg+xml</dc:format><dc:type
           rdf:resource="http://purl.org/dc/dcmitype/StillImage" /><dc:title></dc:title></cc:Work></rdf:RDF></metadata><defs
     id="defs43" /><g
     transform="matrix(0.14892268,0,0,0.14892268,13.699644,14.506096)"
     id="g3"><g
       id="g5"><path
         id="path7"
         d="M 483.6,295.2 414.1,187.8 c -5.4,-8.3 -14.5,-13.3 -24.4,-13.3 l -30.7,0 c -4.5,0 -7.2,5 -4.7,8.7 l 75,116 c 1,1.5 -0.1,3.5 -1.9,3.5 l -32.9,0 -26.8,0 -25.7,0 c -3.1,0 -5.5,2.5 -5.7,5.5 -2.9,48.4 -43,86.8 -92.2,86.8 -49.2,0 -89.3,-38.4 -92.2,-86.8 -0.2,-3.1 -2.6,-5.5 -5.7,-5.5 l -25.7,0 -23,0 -36.6,0 c -1.8,0 -2.8,-2 -1.9,-3.5 l 75,-116 c 2.4,-3.8 -0.3,-8.7 -4.7,-8.7 l -30.7,0 c -9.9,0 -19,5 -24.4,13.3 L 4.8,295.2 C 1.7,300 0,305.7 0,311.5 l 0,149.6 c 0,14.6 11.9,26.5 26.5,26.5 l 217.7,0 217.7,0 c 14.6,0 26.5,-11.9 26.5,-26.5 l 0,-149.6 c 0,-5.8 -1.6,-11.4 -4.8,-16.3 z" /><path
         id="path9"
         d="m 252.2,4.7 c -4.1,-5.2 -12,-5.2 -16.1,0 l -65.9,83.8 c -5.3,6.7 -0.5,16.6 8,16.6 l 26,0 0,158.3 c 0,22.1 17.9,40 40,40 l 0,0 c 22.1,0 40,-17.9 40,-40 l 0,-158.4 26,0 c 8.5,0 13.3,-9.9 8,-16.6 l -66,-83.7 z" /></g></g><g
     transform="translate(0,-388.39999)"
     id="g11" /><g
     transform="translate(0,-388.39999)"
     id="g13" /><g
     transform="translate(0,-388.39999)"
     id="g15" /><g
     transform="translate(0,-388.39999)"
     id="g17" /><g
     transform="translate(0,-388.39999)"
     id="g19" /><g
     transform="translate(0,-388.39999)"
     id="g21" /><g
     transform="translate(0,-388.39999)"
     id="g23" /><g
     transform="translate(0,-388.39999)"
     id="g25" /><g
     transform="translate(0,-388.39999)"
     id="g27" /><g
     transform="translate(0,-388.39999)"
     id="g29" /><g
     transform="translate(0,-388.39999)"
     id="g31" /><g
     transform="translate(0,-388.39999)"
     id="g33" /><g
     transform="translate(0,-388.39999)"
     id="g35" /><g
     transform="translate(0,-388.39999)"
     id="g37" /><g
     transform="translate(0,-388.39999)"
     id="g39" /></svg>