<?xml version="1.0" encoding="UTF-8" standalone="no"?>
<svg
   xmlns:dc="http://purl.org/dc/elements/1.1/"
   xmlns:cc="http://creativecommons.org/ns#"
   xmlns:rdf="http://www.w3.org/1999/02/22-rdf-syntax-ns#"
   xmlns:svg="http://www.w3.org/2000/svg"
   xmlns="http://www.w3.org/2000/svg"
   height="100"
   width="100"
   xml:space="preserve"
   viewBox="0 0 100 100"
   y="0px"
   x="0px"
   id="Capa_1"
   version="1.1"><metadata
     id="metadata45"><rdf:RDF><cc:Work
         rdf:about=""><dc:format>image/svg+xml</dc:format><dc:type
           rdf:resource="http://purl.org/dc/dcmitype/StillImage" /><dc:title></dc:title></cc:Work></rdf:RDF></metadata><defs
     id="defs43" /><g
     transform="translate(0,-512)"
     id="g3"><g
       style="fill:#ffffff"
       transform="matrix(0.14210903,0,0,0.14210903,6.3430802,518.95478)"
       id="g5"><path
         style="fill:#ffffff"
         id="path7"
         d="M 306.001,325.988 C 396.564,325.983 429.148,235.306 437.68,160.821 448.188,69.06 404.799,0 306.001,0 207.219,0 163.806,69.055 174.322,160.82 c 8.54,74.484 41.114,165.175 131.679,165.168 z" /><path
         style="fill:#ffffff"
         id="path9"
         d="m 550.981,541.908 c -0.99,-28.904 -4.377,-57.939 -9.421,-86.393 -6.111,-34.469 -13.889,-85.002 -43.983,-107.465 -17.404,-12.988 -39.941,-17.249 -59.865,-25.081 -9.697,-3.81 -18.384,-7.594 -26.537,-11.901 -27.518,30.176 -63.4,45.962 -105.186,45.964 -41.774,0 -77.652,-15.786 -105.167,-45.964 -8.153,4.308 -16.84,8.093 -26.537,11.901 -19.924,7.832 -42.461,12.092 -59.863,25.081 -30.096,22.463 -37.873,72.996 -43.983,107.465 -5.045,28.454 -8.433,57.489 -9.422,86.393 -0.766,22.387 10.288,25.525 29.017,32.284 23.453,8.458 47.666,14.737 72.041,19.884 47.077,9.941 95.603,17.582 143.921,17.924 48.318,-0.343 96.844,-7.983 143.921,-17.924 24.375,-5.145 48.59,-11.424 72.041,-19.884 18.736,-6.757 29.789,-9.895 29.023,-32.284 z" /></g></g><g
     transform="translate(0,-512)"
     id="g11" /><g
     transform="translate(0,-512)"
     id="g13" /><g
     transform="translate(0,-512)"
     id="g15" /><g
     transform="translate(0,-512)"
     id="g17" /><g
     transform="translate(0,-512)"
     id="g19" /><g
     transform="translate(0,-512)"
     id="g21" /><g
     transform="translate(0,-512)"
     id="g23" /><g
     transform="translate(0,-512)"
     id="g25" /><g
     transform="translate(0,-512)"
     id="g27" /><g
     transform="translate(0,-512)"
     id="g29" /><g
     transform="translate(0,-512)"
     id="g31" /><g
     transform="translate(0,-512)"
     id="g33" /><g
     transform="translate(0,-512)"
     id="g35" /><g
     transform="translate(0,-512)"
     id="g37" /><g
     transform="translate(0,-512)"
     id="g39" /></svg>