<?xml version="1.0" encoding="utf-8"?>
<!-- Generator: Adobe Illustrator 15.1.0, SVG Export Plug-In . SVG Version: 6.00 Build 0)  -->
<!DOCTYPE svg PUBLIC "-//W3C//DTD SVG 1.1//EN" "http://www.w3.org/Graphics/SVG/1.1/DTD/svg11.dtd">
<svg version="1.1" id="Layer_1" xmlns="http://www.w3.org/2000/svg" xmlns:xlink="http://www.w3.org/1999/xlink" x="0px" y="0px"
	 width="100px" height="100px" viewBox="0 0 100 100" enable-background="new 0 0 100 100" xml:space="preserve">
<path d="M79.851,65.758L64.09,49.997l14.163-14.164c3.892-3.892,3.892-10.201,0-14.092c-3.892-3.892-10.2-3.892-14.092,0
	L49.997,35.905L35.833,21.741c-3.892-3.892-10.201-3.892-14.092,0c-3.892,3.892-3.892,10.201,0,14.092l14.164,14.164L20.144,65.758
	l0.188,0.188c-2.401,3.846-1.939,8.971,1.403,12.314c3.344,3.343,8.469,3.805,12.314,1.403l0.188,0.188L49.997,64.09l15.761,15.761
	l0.188-0.188c3.846,2.401,8.971,1.939,12.314-1.403c3.343-3.344,3.805-8.469,1.403-12.314L79.851,65.758z"/>
</svg>
