<?xml version="1.0" standalone="no"?>
<!DOCTYPE svg PUBLIC "-//W3C//DTD SVG 20010904//EN"
 "http://www.w3.org/TR/2001/REC-SVG-20010904/DTD/svg10.dtd">
<svg version="1.0" xmlns="http://www.w3.org/2000/svg"
 width="600.000000pt" height="600.000000pt" viewBox="0 0 600.000000 600.000000"
 preserveAspectRatio="xMidYMid meet">
<metadata>
Created by potrace 1.11, written by Peter Selinger 2001-2013
</metadata>
<g transform="translate(0.000000,600.000000) scale(0.100000,-0.100000)"
fill="#000000" stroke="none">
<path d="M80 5760 c-10 -6 -20 -88 -35 -281 l-6 -76 88 -22 c129 -34 126 -31
157 -168 15 -65 32 -131 37 -148 4 -16 11 -43 14 -60 6 -36 4 -30 50 -225 20
-85 42 -180 50 -210 8 -30 16 -66 18 -80 3 -14 12 -54 21 -90 24 -99 87 -372
92 -398 3 -12 36 -158 74 -323 39 -165 72 -313 75 -329 3 -16 9 -40 14 -53
l10 -24 477 1 478 1 36 185 c37 184 88 452 96 500 3 14 7 39 11 55 4 17 8 36
9 43 29 162 38 192 54 192 13 0 20 -15 30 -62 7 -35 14 -70 16 -78 1 -8 14
-64 27 -125 14 -60 38 -171 55 -246 17 -75 34 -150 37 -167 3 -17 11 -57 19
-89 8 -32 22 -92 31 -134 l17 -76 491 1 491 1 8 40 c4 22 21 108 38 190 34
163 35 165 51 245 6 30 28 138 49 240 22 102 41 199 44 215 3 17 8 39 10 50 3
11 19 90 36 175 17 85 49 241 71 345 22 105 42 204 45 220 3 17 11 58 19 93 8
34 17 74 20 90 3 15 7 38 10 52 3 14 8 39 11 55 10 53 27 65 136 93 l103 27 0
178 c0 111 -4 177 -10 178 -5 0 -238 1 -518 2 -444 2 -507 0 -508 -13 0 -8 -2
-24 -4 -34 -2 -11 -6 -54 -10 -95 -7 -94 -14 -159 -19 -188 -6 -29 -5 -30 184
-49 36 -3 69 -10 73 -14 5 -4 0 -54 -11 -111 -21 -107 -48 -251 -57 -304 -4
-28 -7 -41 -20 -105 -2 -14 -6 -36 -9 -50 -4 -24 -82 -455 -90 -495 -41 -217
-50 -263 -61 -335 -1 -8 -11 -16 -23 -18 -16 -3 -23 3 -28 25 -3 15 -10 42
-15 58 -4 17 -11 46 -14 65 -3 19 -10 51 -16 71 -5 21 -14 59 -19 85 -6 27
-12 58 -15 69 -45 194 -177 776 -181 795 -16 83 -48 206 -54 215 -8 10 -686
12 -696 2 -5 -4 -41 -146 -50 -197 -3 -14 -11 -52 -20 -85 -8 -33 -16 -69 -18
-80 -2 -11 -22 -99 -44 -195 -23 -96 -43 -186 -46 -200 -14 -75 -138 -608
-144 -621 -11 -27 -52 -6 -52 26 0 14 -4 45 -9 68 -5 23 -14 69 -20 102 -6 33
-18 96 -27 140 -8 44 -24 127 -34 185 -22 124 -34 189 -90 490 -17 91 -35 190
-40 220 -6 30 -12 64 -14 75 -14 71 -16 104 -9 108 4 3 33 7 63 11 30 3 80 9
110 12 30 4 61 7 68 7 15 0 13 -14 15 185 1 91 -2 166 -7 170 -12 7 -1185 9
-1196 2z"/>
<path d="M3877 5758 c-8 -5 -12 -61 -12 -183 0 -96 2 -175 5 -176 28 -4 70
-10 150 -19 61 -7 99 -16 106 -25 16 -21 15 -1659 0 -1680 -6 -8 -31 -16 -56
-19 -25 -3 -72 -9 -105 -12 -33 -4 -67 -8 -75 -10 -8 -1 -17 -3 -20 -3 -3 -1
-5 -81 -5 -178 l0 -178 782 -2 781 -1 0 179 c0 98 -3 179 -6 180 -16 3 -85 7
-217 14 -77 4 -153 9 -170 10 -16 2 -51 3 -77 4 -77 2 -76 -2 -74 268 l1 237
121 2 c66 1 148 4 183 8 54 6 86 11 188 32 13 2 55 16 95 30 286 103 449 325
484 659 39 374 -79 641 -339 768 -106 52 -224 83 -352 93 -121 9 -1374 11
-1388 2z m1173 -518 c59 -16 112 -72 130 -136 20 -70 18 -207 -3 -270 -36
-105 -121 -167 -242 -175 l-50 -4 -1 302 -1 301 61 -3 c34 -1 81 -8 106 -15z"/>
<path d="M4305 2758 c-399 -64 -652 -203 -851 -465 -86 -112 -189 -354 -210
-492 -45 -302 -37 -550 26 -798 41 -163 97 -283 197 -422 31 -42 139 -142 200
-183 194 -132 461 -201 783 -201 92 0 243 9 289 18 9 1 38 6 64 9 51 8 75 12
117 21 14 3 36 7 49 10 57 11 232 70 304 102 l77 36 0 378 0 379 -47 1 c-263
3 -456 0 -463 -7 -4 -5 -20 -88 -35 -184 -17 -110 -32 -181 -42 -192 -8 -9
-36 -20 -62 -24 -25 -4 -55 -8 -66 -10 -11 -3 -60 -4 -110 -4 -261 -1 -421
129 -495 403 -28 105 -33 154 -34 332 -2 250 20 368 91 504 57 109 127 173
245 224 70 30 79 31 208 31 82 0 149 -5 172 -13 42 -14 50 -31 68 -151 6 -41
13 -86 16 -100 2 -14 6 -43 9 -65 10 -70 11 -74 16 -79 7 -7 104 -16 451 -41
l77 -6 0 399 0 400 -70 37 c-119 62 -275 110 -499 151 -53 10 -418 12 -475 2z"/>
<path d="M650 2547 c0 -133 3 -179 13 -182 6 -2 41 -6 77 -10 123 -11 155 -17
169 -30 12 -12 14 -144 14 -832 0 -450 -3 -828 -7 -839 -7 -23 -24 -27 -146
-39 -30 -3 -70 -8 -87 -11 l-33 -5 0 -179 c0 -164 2 -180 18 -181 84 -4 1207
0 1275 5 516 38 864 265 1035 676 30 73 66 199 77 270 3 19 7 46 10 60 17 96
22 320 10 454 -6 60 -18 132 -41 243 -20 101 -98 269 -167 363 -41 56 -174
190 -188 190 -4 0 -14 6 -22 14 -39 40 -267 143 -357 161 -8 2 -35 8 -60 13
-50 12 -98 19 -180 28 -30 3 -360 7 -732 8 l-678 1 0 -178z m1288 -342 c138
-33 249 -115 304 -226 32 -62 63 -175 73 -269 15 -125 9 -412 -10 -500 -3 -14
-7 -38 -10 -53 -3 -15 -16 -56 -30 -92 -80 -214 -234 -316 -497 -332 l-98 -5
0 752 0 753 103 -7 c56 -3 130 -13 165 -21z"/>
</g>
</svg>
