<?xml version="1.0" encoding="utf-8"?>
<!-- Generator: Adobe Illustrator 15.1.0, SVG Export Plug-In . SVG Version: 6.00 Build 0)  -->
<!DOCTYPE svg PUBLIC "-//W3C//DTD SVG 1.1//EN" "http://www.w3.org/Graphics/SVG/1.1/DTD/svg11.dtd">
<svg version="1.1"
	 id="Layer_1" xmlns:inkscape="http://www.inkscape.org/namespaces/inkscape" xmlns:dc="http://purl.org/dc/elements/1.1/" xmlns:svg="http://www.w3.org/2000/svg" xmlns:cc="http://creativecommons.org/ns#" xmlns:rdf="http://www.w3.org/1999/02/22-rdf-syntax-ns#" xmlns:sodipodi="http://sodipodi.sourceforge.net/DTD/sodipodi-0.dtd"
	 xmlns="http://www.w3.org/2000/svg" xmlns:xlink="http://www.w3.org/1999/xlink" x="0px" y="0px" width="835.568px"
	 height="235.674px" viewBox="-63.25 104.673 835.568 235.674" enable-background="new -63.25 104.673 835.568 235.674"
	 xml:space="preserve">
<g>
	<path fill="#3D4352" d="M95.37,274.761H16.334v-35.684l79.036-93.949h37.814v95.973h19.6v33.66h-19.6v29.188H95.37V274.761z
		 M95.37,241.101v-49.143l-41.761,49.143H95.37z"/>
	<path fill="#3D4352" d="M166.313,225.232c0-29.684,5.343-50.455,16.033-62.313c10.687-11.856,26.96-17.789,48.836-17.789
		c10.507,0,19.135,1.299,25.885,3.89c6.745,2.592,12.248,5.965,16.51,10.117c4.261,4.156,7.619,8.521,10.064,13.104
		c2.455,4.58,4.423,9.927,5.915,16.029c2.908,11.648,4.367,23.793,4.367,36.432c0,28.334-4.794,49.072-14.381,62.207
		c-9.587,13.139-26.098,19.705-49.531,19.705c-13.142,0-23.755-2.096-31.85-6.283c-8.095-4.188-14.738-10.332-19.919-18.43
		c-3.768-5.752-6.693-13.615-8.79-23.594C167.36,248.33,166.313,237.304,166.313,225.232z M209.345,225.339
		c0,19.885,1.76,33.467,5.271,40.742c3.52,7.279,8.609,10.918,15.287,10.918c4.4,0,8.219-1.543,11.454-4.633
		c3.229-3.09,5.605-7.971,7.13-14.646c1.531-6.676,2.294-17.076,2.294-31.209c0-20.734-1.756-34.674-5.276-41.809
		c-3.51-7.139-8.785-10.707-15.813-10.707c-7.177,0-12.358,3.643-15.553,10.919C210.944,192.195,209.345,205.667,209.345,225.339z"
		/>
	<path fill="#3D4352" d="M386.381,274.761h-79.037v-35.684l79.037-93.949h37.813v95.973h19.601v33.66h-19.601v29.188h-37.813
		V274.761z M386.381,241.101v-49.143l-41.761,49.143H386.381z"/>
</g>
<g>
	<path fill="#3D4352" d="M675.447,154.83L565.793,122.76c-0.418-0.122-0.867-0.125-1.289-0.01l-91.006,24.978
		c-0.952,0.263-1.647,1.088-1.73,2.073c-0.091,0.98,0.44,1.919,1.329,2.346l23.634,11.332c0.529,0.251,1.128,0.301,1.688,0.139
		l68.811-20.043l85.863,27.859l-10.283,89.205l-37.616,23.721l-12.173,3.617l-5.357,7.438l-8.825,3.397l-4.326,7.081l-18.185,4.924
		l-6.215-9.111l-60.961-40.351l-7.451-77.827l72.461,38.479l0.166,26.73l2.127,12.972l-4.314,11.348l5.79,8.434l-9.683,5.837
		l5.889,11.357c-0.002,0.646,0.255,1.262,0.721,1.713l3.513,3.397l14.533-0.286l2.705-2.39c0.509-0.447,0.796-1.089,0.797-1.766
		l-4.16-7.812l7.958-9.403l-5.786-10.379l4.313-11.024l-2.122-13.945l-0.127-36.719c0-0.904-0.512-1.73-1.319-2.13l-111.369-54.886
		c-0.774-0.383-1.69-0.313-2.397,0.176c-0.705,0.491-1.09,1.327-1.003,2.182l11.762,116.32c0.063,0.603,0.355,1.154,0.813,1.555
		l58.913,41.016l8.585,3.504l6.16,7.018h13.295l12.975-2.801l11.673,0.973l6.163-5.189l9.022-3.555l7.867-9.258l10.808-2.921
		l44.688-29.145c0.491-0.391,0.807-0.959,0.88-1.579l13.134-113.98C677.264,156.224,676.548,155.149,675.447,154.83"/>
	<g id="svg_6">
		<g enable-background="new    ">
			<g>
				<polygon fill="#3D4352" points="532.978,242.924 531.581,243.183 530.239,241.547 531.633,241.288 				"/>
			</g>
			<g>
				<polygon fill="#3D4352" points="531.434,240.93 530.251,241.155 530.283,239.886 531.47,239.667 				"/>
			</g>
			<g>
				<polygon fill="#3D4352" points="533.024,241.265 532.988,242.532 531.848,241.138 531.883,239.875 				"/>
			</g>
			<g>
				<path fill="#3D4352" d="M532.592,237.026c0.162,0.082,0.323,0.162,0.485,0.243c0.161,0.081,0.323,0.163,0.485,0.244
					c0.161,0.081,0.323,0.165,0.486,0.246c0,0.026-0.002,0.056-0.003,0.081c0,0.028-0.002,0.055-0.002,0.084
					c0,0.026,0,0.055-0.002,0.082c-0.001,0.028-0.001,0.055-0.001,0.084c-0.005,0.117,0.063,0.305,0.165,0.521
					c0.104,0.222,0.24,0.476,0.38,0.722c0.137,0.248,0.276,0.492,0.378,0.695c0.104,0.203,0.173,0.365,0.169,0.448
					c-0.008,0.271-0.012,0.499-0.021,0.707c-0.004,0.207-0.009,0.394-0.014,0.58c-0.007,0.186-0.011,0.372-0.016,0.579
					c-0.008,0.206-0.013,0.435-0.021,0.705c-0.002,0.042-0.013,0.079-0.032,0.109c-0.021,0.033-0.048,0.058-0.08,0.073
					c-0.033,0.017-0.069,0.027-0.11,0.024c-0.041-0.001-0.088-0.013-0.134-0.035c-0.05-0.027-0.095-0.06-0.136-0.102
					s-0.079-0.091-0.109-0.142c-0.03-0.049-0.053-0.103-0.069-0.155c-0.016-0.055-0.023-0.104-0.023-0.152
					c0.006-0.168,0.008-0.295,0.012-0.399c0.004-0.103,0.007-0.185,0.009-0.269c0.003-0.081,0.003-0.165,0.008-0.27
					c0.003-0.103,0.005-0.227,0.01-0.396c0.002-0.081-0.006-0.157-0.031-0.246c-0.026-0.088-0.066-0.188-0.127-0.312
					c-0.061-0.124-0.141-0.274-0.246-0.463c-0.104-0.19-0.235-0.422-0.394-0.707c-0.008-0.018-0.021-0.033-0.03-0.049
					c-0.012-0.013-0.023-0.026-0.036-0.038c-0.01-0.011-0.022-0.022-0.034-0.03s-0.024-0.015-0.035-0.021
					c-0.021-0.012-0.045-0.017-0.065-0.019c-0.018,0-0.035,0.005-0.048,0.013c-0.01,0.01-0.018,0.025-0.02,0.045
					c-0.001,0.021,0.004,0.045,0.019,0.076c0.042,0.079,0.082,0.159,0.123,0.239c0.04,0.08,0.081,0.159,0.123,0.241
					c0.04,0.08,0.078,0.159,0.123,0.238c0.041,0.083,0.081,0.161,0.122,0.241c0.021,0.046,0.04,0.095,0.049,0.145
					c0.012,0.051,0.017,0.104,0.015,0.15c-0.002,0.048-0.009,0.09-0.023,0.127c-0.018,0.034-0.039,0.061-0.068,0.069
					c-0.013,0.008-0.027,0.01-0.044,0.01c-0.015,0-0.033,0-0.05-0.002c-0.017-0.003-0.033-0.008-0.052-0.014
					c-0.019-0.007-0.036-0.015-0.055-0.023c-0.029-0.017-0.059-0.033-0.087-0.053c-0.03-0.021-0.058-0.045-0.086-0.069
					c-0.028-0.025-0.054-0.051-0.079-0.08c-0.025-0.028-0.048-0.057-0.068-0.087c-0.123-0.198-0.26-0.422-0.402-0.648
					c-0.14-0.228-0.279-0.466-0.403-0.694c-0.126-0.227-0.235-0.447-0.312-0.644c-0.077-0.194-0.12-0.364-0.117-0.497
					c0.001-0.095,0.005-0.179,0.006-0.259c0.003-0.078,0.004-0.152,0.008-0.225c0.001-0.075,0.004-0.149,0.006-0.229
					c0.002-0.078,0.006-0.162,0.008-0.255c0-0.042,0.001-0.083,0.001-0.122c0.004-0.041,0.004-0.08,0.004-0.122
					c0.002-0.04,0.005-0.081,0.005-0.121c0-0.041,0.003-0.082,0.003-0.12C532.268,236.862,532.43,236.944,532.592,237.026z"/>
			</g>
			<g>
				<path fill="#3D4352" d="M537.132,247.878l-11.156-5.624l0.274-10.285l11.174,5.612L537.132,247.878z M526.703,241.964
					l9.731,4.905l0.254-8.997l-9.747-4.897L526.703,241.964"/>
			</g>
			<g>
				<path fill="#3D4352" d="M529.964,235.705c0.161,0.081,0.322,0.161,0.485,0.243c0.161,0.081,0.322,0.161,0.483,0.242
					c0.162,0.081,0.325,0.165,0.486,0.244c0,0.043-0.003,0.081-0.003,0.122c-0.003,0.042-0.004,0.082-0.005,0.123
					c0,0.038-0.003,0.078-0.004,0.119s-0.001,0.081-0.004,0.122c-0.003,0.094-0.004,0.178-0.005,0.256
					c-0.003,0.08-0.005,0.154-0.008,0.228s-0.005,0.147-0.006,0.228c-0.002,0.078-0.006,0.162-0.007,0.257
					c-0.005,0.131-0.056,0.253-0.141,0.367c-0.087,0.114-0.205,0.221-0.338,0.317c-0.135,0.099-0.282,0.189-0.432,0.273
					c-0.148,0.083-0.295,0.161-0.424,0.231c-0.024,0.01-0.046,0.017-0.072,0.019c-0.025,0.002-0.054,0.002-0.081-0.002
					c-0.029-0.004-0.058-0.01-0.087-0.018c-0.029-0.009-0.06-0.021-0.087-0.035c-0.019-0.008-0.039-0.021-0.057-0.032
					c-0.015-0.013-0.033-0.023-0.049-0.036c-0.02-0.017-0.035-0.031-0.05-0.05c-0.016-0.014-0.028-0.032-0.042-0.05
					c-0.029-0.04-0.047-0.089-0.061-0.137c-0.013-0.047-0.02-0.1-0.017-0.147c0.001-0.046,0.008-0.092,0.021-0.131
					c0.015-0.038,0.032-0.068,0.056-0.09c0.043-0.037,0.089-0.075,0.132-0.113c0.046-0.038,0.089-0.073,0.133-0.111
					c0.045-0.038,0.089-0.075,0.133-0.113c0.043-0.037,0.087-0.073,0.133-0.109c0.016-0.018,0.021-0.036,0.021-0.057
					c0.002-0.021-0.005-0.042-0.017-0.063c-0.01-0.021-0.026-0.041-0.045-0.06c-0.018-0.019-0.04-0.034-0.064-0.047
					c-0.013-0.005-0.022-0.011-0.034-0.013c-0.013-0.004-0.025-0.007-0.037-0.005c-0.011-0.003-0.023-0.002-0.035,0.002
					c-0.01,0.003-0.021,0.008-0.034,0.013c-0.168,0.123-0.305,0.22-0.418,0.301c-0.111,0.082-0.197,0.147-0.265,0.206
					c-0.065,0.063-0.11,0.118-0.139,0.177c-0.029,0.061-0.042,0.128-0.045,0.209c-0.005,0.169-0.009,0.293-0.01,0.397
					c-0.003,0.102-0.007,0.186-0.008,0.268c-0.002,0.084-0.005,0.166-0.008,0.27s-0.006,0.229-0.011,0.397
					c-0.002,0.048-0.013,0.089-0.029,0.124c-0.02,0.037-0.045,0.064-0.077,0.085c-0.032,0.018-0.07,0.029-0.112,0.028
					c-0.043,0-0.089-0.013-0.139-0.037c-0.045-0.022-0.088-0.056-0.129-0.097c-0.041-0.04-0.079-0.085-0.108-0.135
					c-0.03-0.048-0.054-0.098-0.073-0.148c-0.016-0.049-0.025-0.096-0.025-0.141c0.01-0.27,0.014-0.496,0.021-0.703
					c0.005-0.208,0.01-0.393,0.015-0.579c0.006-0.187,0.011-0.373,0.016-0.579c0.006-0.208,0.013-0.437,0.021-0.707
					c0.002-0.083,0.075-0.172,0.187-0.269c0.111-0.096,0.259-0.195,0.406-0.298c0.149-0.104,0.296-0.214,0.407-0.325
					c0.111-0.112,0.187-0.228,0.189-0.345c0-0.027,0.002-0.056,0.002-0.083c0-0.028,0.003-0.056,0.003-0.084
					s0.003-0.056,0.003-0.083c0-0.026,0.002-0.054,0.002-0.082C529.641,235.542,529.8,235.623,529.964,235.705z"/>
			</g>
			<g>
				<path fill="#3D4352" d="M529.753,229.592l-0.141-0.024l-0.194-0.033l0.097,0.215l0.338,0.755l-1.087-0.546
					c0.017-0.138,0.039-0.266,0.068-0.388c0.03-0.125,0.07-0.237,0.113-0.348c0.046-0.108,0.099-0.21,0.153-0.304
					c0.058-0.098,0.119-0.186,0.189-0.267L529.753,229.592z"/>
			</g>
			<g>
				<polygon fill="#3D4352" points="541.404,246.469 541.954,246.744 542.508,247.02 542.986,247.263 542.448,247.793 
					541.907,248.326 541.416,247.273 540.925,246.226 				"/>
			</g>
			<g>
				<polygon fill="#3D4352" points="542.627,242.907 542.508,247.02 541.954,246.744 541.404,246.469 541.525,242.354 				"/>
			</g>
			<g>
				<polygon fill="#3D4352" points="544.845,248.2 545.396,248.478 545.945,248.75 546.426,248.996 545.888,249.525 
					545.349,250.057 544.854,249.005 544.362,247.956 				"/>
			</g>
			<g>
				<path fill="#3D4352" d="M531.667,225.628l0.688,0.345l1.373,0.688l-0.013,0.508l-1.374-0.689l-0.057,2.053
					c0.364,0.228,0.706,0.515,1.019,0.85c0.31,0.334,0.588,0.71,0.823,1.112c0.236,0.401,0.428,0.826,0.567,1.259
					c0.14,0.435,0.227,0.875,0.248,1.303l-4.696-2.355l-0.332-0.744l0.152,0.026l0.205,0.034l-0.113-0.225l-0.665-1.352
					c0.129-0.113,0.272-0.206,0.429-0.274c0.155-0.071,0.322-0.118,0.502-0.141c0.178-0.024,0.364-0.022,0.562,0.002
					c0.196,0.027,0.4,0.08,0.611,0.159l0.056-2.052l-1.374-0.687l0.013-0.51L531.667,225.628z"/>
			</g>
			<g>
				<polygon fill="#3D4352" points="527.582,216.914 527.543,218.427 529.171,219.241 529.154,219.842 527.526,219.029 
					527.505,219.873 529.392,220.817 529.375,221.418 526.699,220.08 526.796,216.52 				"/>
			</g>
			<g>
				<polygon fill="#3D4352" points="547.268,244.276 547.25,244.908 540.363,241.448 540.383,240.816 				"/>
			</g>
			<g>
				<path fill="#3D4352" d="M549.161,253.937l-11.199-5.641L538.254,238l11.22,5.633L549.161,253.937z M538.694,248.006l9.771,4.924
					l0.272-9.007l-9.786-4.915L538.694,248.006"/>
			</g>
			<g>
				<polygon fill="#3D4352" points="546.068,244.634 545.945,248.75 545.396,248.478 544.845,248.2 544.967,244.083 				"/>
			</g>
			<g>
				<path fill="#3D4352" d="M527.088,213.915l0.301,0.15c0.04,0.021,0.078,0.041,0.111,0.063c0.037,0.021,0.067,0.042,0.097,0.065
					c0.026,0.021,0.052,0.046,0.072,0.067c0.022,0.025,0.042,0.047,0.059,0.069c0.015,0.024,0.027,0.049,0.038,0.071
					c0.014,0.024,0.022,0.047,0.03,0.071c0.006,0.022,0.013,0.046,0.017,0.067c0.001,0.023,0.004,0.047,0.004,0.069
					c-0.003,0.013-0.003,0.025-0.004,0.037c-0.003,0.011-0.005,0.023-0.009,0.034c-0.003,0.01-0.007,0.021-0.012,0.03
					c-0.007,0.008-0.012,0.016-0.019,0.022c-0.006,0.01-0.011,0.017-0.019,0.023c-0.007,0.005-0.015,0.013-0.022,0.017
					c-0.008,0.006-0.017,0.009-0.025,0.014c-0.008,0.003-0.017,0.005-0.028,0.007c-0.01,0-0.021,0.001-0.03,0.001
					c-0.012-0.001-0.022-0.003-0.035-0.005c-0.013,0-0.025-0.003-0.037-0.008c-0.017-0.003-0.029-0.008-0.043-0.013
					c-0.011-0.003-0.021-0.008-0.033-0.011c-0.013-0.005-0.026-0.011-0.041-0.019c-0.015-0.007-0.03-0.014-0.048-0.021
					s-0.035-0.018-0.056-0.026l-0.439-0.22l0.029-1.069l0.155,0.078L527.088,213.915z M527.075,214.423l0.297,0.148
					c0.017,0.009,0.034,0.017,0.047,0.023c0.017,0.007,0.03,0.014,0.043,0.019c0.012,0.005,0.022,0.009,0.03,0.013
					c0.011,0.004,0.018,0.006,0.025,0.008c0.009,0.004,0.02,0.004,0.028,0.005c0.01,0.001,0.018,0.001,0.024-0.001
					c0.01-0.002,0.018-0.003,0.023-0.006c0.007-0.005,0.014-0.007,0.023-0.013c0.005-0.003,0.011-0.01,0.016-0.018
					c0.004-0.005,0.008-0.013,0.012-0.021c0.004-0.007,0.007-0.018,0.009-0.027c0.002-0.008,0.004-0.018,0.004-0.03
					c0-0.016-0.002-0.03-0.004-0.045c-0.002-0.017-0.005-0.03-0.011-0.044c-0.004-0.016-0.012-0.029-0.02-0.043
					c-0.006-0.015-0.016-0.027-0.025-0.044c-0.013-0.014-0.021-0.026-0.038-0.04c-0.014-0.012-0.028-0.024-0.044-0.037
					c-0.019-0.013-0.038-0.025-0.059-0.038c-0.021-0.014-0.046-0.025-0.071-0.038l-0.301-0.152L527.075,214.423"/>
			</g>
			<g>
				<polygon fill="#3D4352" points="528.757,214.308 528.753,214.435 528.174,214.149 528.151,215.088 527.996,215.01 
					528.024,213.944 				"/>
			</g>
			<g>
				<polygon fill="#3D4352" points="529.813,214.837 529.811,214.965 529.093,214.606 529.083,214.969 529.729,215.292 
					529.726,215.417 529.079,215.093 529.071,215.421 529.762,215.765 529.76,215.892 528.913,215.469 528.94,214.402 				"/>
			</g>
			<g>
				<path fill="#3D4352" d="M530.871,220.064l0.16,0.082c0.046,0.021,0.088,0.04,0.127,0.06c0.041,0.019,0.076,0.034,0.109,0.047
					c0.035,0.013,0.066,0.023,0.09,0.033c0.028,0.009,0.054,0.015,0.074,0.019c0.02,0.004,0.04,0.007,0.061,0.007
					s0.042,0,0.063-0.003c0.019-0.003,0.039-0.005,0.06-0.013c0.019-0.005,0.04-0.013,0.057-0.022
					c0.02-0.008,0.043-0.021,0.071-0.038c0.026-0.02,0.059-0.041,0.094-0.067c0.036-0.027,0.075-0.058,0.118-0.093
					c0.048-0.036,0.094-0.074,0.146-0.118l0.593-0.488l0.945,0.471l-0.496,0.455c-0.051,0.047-0.098,0.089-0.143,0.126
					c-0.043,0.037-0.085,0.07-0.123,0.099c-0.039,0.029-0.076,0.054-0.11,0.076c-0.033,0.023-0.063,0.04-0.092,0.054
					c-0.028,0.013-0.058,0.025-0.091,0.035c-0.033,0.011-0.066,0.02-0.101,0.027c-0.038,0.007-0.075,0.014-0.114,0.018
					c-0.04,0.004-0.081,0.006-0.124,0.009c0.084,0.054,0.165,0.109,0.238,0.165c0.075,0.059,0.145,0.117,0.207,0.175
					c0.063,0.06,0.122,0.121,0.175,0.182c0.054,0.063,0.098,0.127,0.143,0.193c0.042,0.065,0.077,0.131,0.109,0.196
					c0.031,0.063,0.059,0.13,0.078,0.197c0.021,0.065,0.033,0.132,0.043,0.199c0.011,0.065,0.014,0.135,0.011,0.199
					c0,0.055-0.005,0.102-0.017,0.148c-0.006,0.047-0.02,0.088-0.034,0.128c-0.016,0.04-0.033,0.076-0.056,0.109
					c-0.024,0.033-0.051,0.063-0.079,0.089c-0.03,0.026-0.063,0.051-0.097,0.068c-0.036,0.017-0.07,0.033-0.108,0.041
					c-0.041,0.01-0.082,0.015-0.125,0.017c-0.043,0-0.089-0.003-0.135-0.012c-0.048-0.006-0.104-0.021-0.163-0.039
					c-0.063-0.017-0.132-0.042-0.208-0.071s-0.159-0.066-0.251-0.108c-0.088-0.04-0.187-0.087-0.29-0.14l-1.66-0.831l0.096-3.562
					l0.789,0.394L530.871,220.064z M530.831,221.537l0.613,0.306c0.081,0.041,0.152,0.076,0.217,0.107
					c0.064,0.032,0.12,0.058,0.167,0.081c0.049,0.024,0.089,0.043,0.121,0.059c0.031,0.013,0.056,0.023,0.073,0.03
					c0.032,0.01,0.063,0.021,0.091,0.025c0.027,0.006,0.056,0.01,0.078,0.01c0.026,0.003,0.051,0,0.071-0.004
					c0.022-0.005,0.043-0.013,0.061-0.021c0.019-0.01,0.033-0.022,0.049-0.038c0.013-0.015,0.022-0.033,0.032-0.053
					c0.01-0.021,0.017-0.041,0.021-0.069c0.005-0.022,0.009-0.051,0.011-0.081c0-0.026,0-0.052-0.003-0.078
					c-0.003-0.027-0.008-0.051-0.013-0.078c-0.008-0.025-0.016-0.049-0.022-0.074c-0.011-0.024-0.023-0.05-0.034-0.075
					c-0.013-0.024-0.027-0.048-0.042-0.071c-0.016-0.022-0.033-0.046-0.051-0.067s-0.037-0.043-0.059-0.063
					c-0.021-0.019-0.043-0.039-0.066-0.058c-0.022-0.02-0.054-0.042-0.095-0.069c-0.042-0.026-0.093-0.056-0.151-0.087
					c-0.057-0.033-0.127-0.07-0.204-0.11c-0.075-0.041-0.162-0.084-0.257-0.133l-0.584-0.293L530.831,221.537"/>
			</g>
			<g>
				<path fill="#3D4352" d="M537.446,236.804l-11.178-5.61l0.274-10.321l11.194,5.602L537.446,236.804z M526.999,230.902
					l9.749,4.894l0.256-9.027l-9.766-4.885L526.999,230.902"/>
			</g>
			<g>
				<path fill="#3D4352" d="M530.181,215.35l0.49,0.243l0.146-0.256l0.174,0.089l-0.506,0.827l-0.165-0.082l-0.422-1.294
					l0.164,0.082L530.181,215.35z M530.345,215.864c0.008,0.021,0.013,0.041,0.018,0.062c0.005,0.019,0.011,0.038,0.016,0.059
					c0.002,0.02,0.007,0.037,0.013,0.058c0.005,0.021,0.009,0.038,0.011,0.059c0.006-0.013,0.012-0.025,0.017-0.039
					c0.007-0.015,0.013-0.028,0.021-0.042c0.008-0.016,0.017-0.03,0.024-0.049c0.01-0.016,0.019-0.032,0.029-0.052l0.128-0.234
					l-0.395-0.197L530.345,215.864"/>
			</g>
			<g>
				<polygon fill="#3D4352" points="531.885,216.84 531.892,216.824 531.897,216.81 				"/>
			</g>
			<g>
				<path fill="#3D4352" d="M531.951,216.718c-0.002,0.013-0.006,0.022-0.011,0.033c-0.003,0.009-0.009,0.018-0.016,0.029
					c-0.009,0.009-0.017,0.019-0.027,0.029l-0.013,0.027c-0.01,0.008-0.021,0.013-0.029,0.015c-0.012,0.002-0.024,0.002-0.037,0.002
					s-0.024,0-0.041-0.001c-0.015-0.001-0.032-0.003-0.049-0.003c-0.018-0.004-0.036-0.009-0.054-0.01
					c-0.018-0.007-0.034-0.011-0.053-0.017c-0.019-0.004-0.036-0.013-0.055-0.021c-0.021-0.009-0.04-0.018-0.06-0.029
					c-0.021-0.01-0.041-0.021-0.062-0.033c-0.021-0.013-0.039-0.022-0.056-0.035c-0.021-0.013-0.038-0.024-0.052-0.038
					c-0.016-0.013-0.03-0.027-0.044-0.041c-0.019-0.015-0.035-0.03-0.052-0.044c-0.015-0.016-0.029-0.029-0.042-0.044
					c-0.013-0.016-0.022-0.029-0.033-0.044c-0.01-0.015-0.016-0.03-0.022-0.045c-0.006-0.015-0.013-0.028-0.021-0.044
					c-0.005-0.014-0.01-0.03-0.015-0.044c-0.004-0.014-0.008-0.029-0.011-0.045c-0.002-0.014-0.005-0.027-0.004-0.043
					c0-0.014,0.002-0.027,0.002-0.038c0.002-0.012,0.005-0.021,0.01-0.029c0.003-0.01,0.008-0.018,0.014-0.025
					c0.01-0.006,0.016-0.014,0.025-0.021c0.007-0.005,0.016-0.009,0.024-0.013c0.008-0.005,0.018-0.01,0.028-0.015
					c0.01-0.004,0.02-0.008,0.03-0.011c0.013-0.003,0.025-0.005,0.038-0.005c0.013,0.002,0.025,0.003,0.041,0.004
					c0.015,0.001,0.032,0.005,0.049,0.009c0.021,0.004,0.041,0.009,0.063,0.016c0.023,0.005,0.049,0.013,0.079,0.021
					c0.025,0.007,0.051,0.015,0.073,0.02c0.025,0.006,0.045,0.011,0.062,0.013c0.018,0.006,0.032,0.008,0.044,0.011
					c0.012,0.002,0.021,0.002,0.026,0.002c0.011,0.003,0.023,0.007,0.034,0.01c0.011,0.002,0.022,0.002,0.031,0.002
					c0.011,0,0.018,0,0.023-0.002c0.007-0.003,0.009-0.004,0.012-0.007c0.009-0.005,0.017-0.008,0.021-0.014
					c0.004-0.007,0.009-0.012,0.012-0.02c0.004-0.008,0.005-0.015,0.005-0.025c0.004-0.008,0-0.018,0-0.029
					c0-0.004,0.004-0.009,0.004-0.017c0-0.005-0.004-0.013-0.004-0.022c-0.001-0.01-0.006-0.021-0.013-0.03
					c-0.004-0.011-0.009-0.021-0.021-0.033c0-0.008-0.005-0.015-0.01-0.025c-0.007-0.008-0.012-0.018-0.02-0.028
					c-0.011-0.01-0.02-0.02-0.031-0.031c-0.009-0.01-0.023-0.021-0.037-0.031c-0.009-0.008-0.021-0.019-0.03-0.025
					c-0.012-0.01-0.022-0.019-0.035-0.025c-0.013-0.008-0.025-0.017-0.037-0.023c-0.012-0.008-0.024-0.013-0.034-0.017
					c-0.021-0.011-0.038-0.021-0.058-0.026c-0.017-0.008-0.034-0.013-0.049-0.016c-0.016-0.005-0.031-0.007-0.046-0.01
					c-0.018-0.003-0.033-0.005-0.051-0.01c-0.011-0.003-0.021-0.006-0.029-0.003c-0.01,0-0.021,0.003-0.03,0.005
					c-0.011,0.004-0.019,0.008-0.028,0.013c-0.009,0.005-0.017,0.009-0.025,0.013c-0.008,0.004-0.013,0.008-0.018,0.016
					c-0.003,0.008-0.007,0.015-0.008,0.025c-0.002,0.008-0.005,0.018-0.008,0.027c-0.002,0.011-0.005,0.021-0.01,0.033l-0.145-0.076
					c0.001-0.018,0.004-0.034,0.008-0.051c0.005-0.015,0.007-0.03,0.015-0.043c0.005-0.016,0.013-0.028,0.021-0.038
					s0.017-0.02,0.025-0.025c0.012-0.013,0.022-0.021,0.035-0.026c0.013-0.007,0.025-0.013,0.041-0.016
					c0.013-0.004,0.027-0.005,0.046-0.005c0.015,0,0.03,0.002,0.048,0.008c0.021,0,0.039,0.002,0.06,0.006
					c0.021,0.003,0.041,0.009,0.063,0.016c0.023,0.005,0.046,0.013,0.071,0.022c0.024,0.009,0.05,0.02,0.076,0.03
					c0.021,0.013,0.041,0.023,0.06,0.036c0.02,0.014,0.039,0.026,0.057,0.039c0.019,0.013,0.036,0.026,0.051,0.039
					c0.017,0.013,0.033,0.024,0.046,0.036c0.017,0.018,0.033,0.035,0.05,0.053c0.016,0.019,0.028,0.033,0.041,0.051
					c0.013,0.016,0.026,0.033,0.039,0.049c0.013,0.018,0.021,0.035,0.033,0.053c0.008,0.016,0.013,0.03,0.017,0.047
					c0.005,0.016,0.011,0.032,0.014,0.05c0.004,0.016,0.006,0.032,0.01,0.048c0.002,0.016,0.005,0.029,0.005,0.045
					s-0.003,0.028-0.005,0.041c-0.004,0.013-0.006,0.025-0.011,0.035c-0.006,0.012-0.01,0.021-0.017,0.03
					c-0.008,0.008-0.017,0.016-0.025,0.023c-0.008,0.003-0.02,0.007-0.028,0.011c-0.012,0.004-0.024,0.007-0.034,0.009
					c-0.013,0.006-0.026,0.008-0.039,0.012c-0.016,0.004-0.028,0.007-0.045,0.01c-0.015-0.007-0.033-0.014-0.05-0.019
					c-0.019-0.005-0.037-0.009-0.058-0.013c-0.021-0.005-0.046-0.01-0.071-0.018c-0.028-0.008-0.059-0.016-0.092-0.028
					c-0.032-0.012-0.061-0.021-0.087-0.025c-0.027-0.008-0.05-0.013-0.067-0.014c-0.021-0.004-0.036-0.007-0.049-0.007
					c-0.011,0-0.021,0-0.027,0c-0.009,0.003-0.017,0.007-0.021,0.013c-0.007,0.006-0.009,0.011-0.014,0.019
					c-0.003,0.007-0.005,0.016-0.005,0.025c0,0.009,0,0.019,0,0.03c-0.002,0.008-0.003,0.015-0.002,0.026
					c0.002,0.009,0.004,0.021,0.007,0.032c0.006,0.013,0.01,0.025,0.018,0.038c0.005,0.01,0.013,0.022,0.022,0.032
					c0.011,0.016,0.027,0.03,0.041,0.046c0.018,0.014,0.031,0.028,0.05,0.043c0.018,0.013,0.035,0.027,0.056,0.041
					c0.019,0.012,0.039,0.024,0.059,0.035c0.025,0.008,0.043,0.015,0.063,0.021c0.02,0.005,0.038,0.011,0.056,0.013
					c0.018,0.005,0.034,0.008,0.048,0.01c0.016,0.003,0.029,0.003,0.042,0.003c0.013-0.003,0.025-0.009,0.033-0.014
					c0.012-0.007,0.021-0.017,0.025-0.026c0.006-0.011,0.008-0.022,0.013-0.033c0.002-0.013,0.002-0.025,0.002-0.041l0.164,0.09
					C531.954,216.696,531.953,216.708,531.951,216.718z"/>
			</g>
			<g>
				<polygon fill="#3D4352" points="533.081,216.467 533.076,216.595 532.359,216.236 532.349,216.6 532.995,216.924 
					532.991,217.047 532.344,216.725 532.336,217.051 533.029,217.398 533.024,217.524 532.179,217.1 532.207,216.032 				"/>
			</g>
			<g>
				<path fill="#3D4352" d="M533.38,216.418c0.01,0.011,0.021,0.021,0.027,0.033c0.011,0.012,0.016,0.021,0.023,0.032
					c0.008,0.011,0.013,0.021,0.021,0.031c0.004,0.013,0.007,0.024,0.011,0.035s0.007,0.023,0.009,0.036
					c0.003,0.013,0.006,0.025,0.006,0.038c0.002,0.014,0.002,0.026,0.002,0.041l-0.005,0.148l-0.162-0.08l0.002-0.15l0.081,0.041
					c0-0.01,0-0.023,0-0.033c-0.002-0.01-0.002-0.021-0.005-0.029c0-0.01-0.005-0.019-0.008-0.026
					c-0.002-0.011-0.005-0.018-0.007-0.025c-0.003-0.008-0.008-0.016-0.013-0.022c-0.006-0.008-0.009-0.015-0.016-0.023
					c-0.005-0.005-0.01-0.013-0.018-0.021c-0.008-0.007-0.016-0.013-0.021-0.02l0.041-0.038
					C533.362,216.399,533.372,216.409,533.38,216.418z"/>
			</g>
			<g>
				<path fill="#3D4352" d="M534.802,221.338l1.563,0.783l0.368-0.638l0.857,0.429l-1.666,2.782l-0.836-0.418l-1.421-4.324
					l0.835,0.419L534.802,221.338z M535.521,223.649l0.574-1.054l-1.068-0.533L535.521,223.649"/>
			</g>
			<g>
				<polygon fill="#3D4352" points="534.363,217.106 534.349,217.612 534.956,217.915 534.97,217.41 535.124,217.488 
					535.095,218.556 534.939,218.479 534.952,218.04 534.346,217.737 534.333,218.174 534.178,218.099 534.209,217.03 				"/>
			</g>
			<g>
				<path fill="#3D4352" d="M544.021,231.591c0.097,0.086,0.186,0.188,0.258,0.293c0.071,0.108,0.13,0.22,0.17,0.332
					c0.038,0.114,0.059,0.225,0.056,0.33l-0.094,3.138c0.041,0.035,0.081,0.069,0.126,0.104c0.044,0.036,0.09,0.071,0.14,0.104
					s0.101,0.066,0.153,0.099c0.054,0.03,0.109,0.063,0.165,0.089c0.119,0.061,0.232,0.106,0.337,0.137
					c0.104,0.033,0.196,0.053,0.276,0.056c0.079,0.006,0.145-0.002,0.189-0.024c0.045-0.025,0.07-0.063,0.072-0.114
					c-0.002,0.052,0.021,0.114,0.064,0.181c0.043,0.067,0.104,0.142,0.179,0.215c0.08,0.073,0.17,0.147,0.274,0.217
					c0.102,0.072,0.216,0.142,0.335,0.201c0.118,0.06,0.232,0.105,0.337,0.138c0.103,0.032,0.196,0.05,0.273,0.055
					c0.08,0.006,0.144-0.005,0.189-0.027c0.045-0.023,0.07-0.062,0.071-0.114c-0.008,0.292-0.104,0.526-0.271,0.702
					c-0.166,0.174-0.403,0.29-0.694,0.346c-0.292,0.057-0.639,0.049-1.021-0.02c-0.385-0.07-0.807-0.205-1.252-0.405l-0.017,0.641
					l-0.552-0.276l0.019-0.64c-0.441-0.246-0.859-0.533-1.236-0.845c-0.376-0.312-0.711-0.646-0.992-0.988
					c-0.279-0.342-0.502-0.687-0.652-1.021c-0.15-0.333-0.23-0.658-0.223-0.947c-0.001,0.051,0.021,0.113,0.063,0.18
					c0.042,0.069,0.104,0.14,0.181,0.214c0.074,0.073,0.17,0.149,0.271,0.218c0.101,0.07,0.215,0.139,0.334,0.199
					s0.233,0.105,0.336,0.138c0.104,0.033,0.197,0.051,0.277,0.056c0.078,0.005,0.145-0.005,0.188-0.028
					c0.046-0.023,0.069-0.061,0.072-0.114c-0.003,0.054,0.021,0.114,0.063,0.184c0.041,0.067,0.103,0.138,0.181,0.212
					c0.076,0.073,0.168,0.148,0.271,0.22c0.102,0.069,0.216,0.138,0.334,0.197c0.056,0.029,0.111,0.055,0.165,0.078
					c0.053,0.021,0.104,0.04,0.157,0.056c0.048,0.015,0.095,0.029,0.142,0.04c0.044,0.01,0.087,0.016,0.125,0.021l0.093-3.139
					c0.001-0.034-0.007-0.074-0.02-0.109c-0.013-0.038-0.03-0.076-0.056-0.111c-0.024-0.036-0.054-0.069-0.087-0.1
					c-0.034-0.029-0.068-0.055-0.107-0.073c-0.037-0.02-0.073-0.03-0.107-0.033c-0.036-0.005-0.065-0.003-0.092,0.009
					c-0.025,0.013-0.046,0.029-0.061,0.052c-0.016,0.023-0.024,0.054-0.025,0.089l-0.003,0.125l-0.551-0.274l0.004-0.126
					c0.001-0.105,0.029-0.195,0.073-0.265c0.045-0.07,0.106-0.123,0.185-0.154c0.077-0.031,0.167-0.043,0.267-0.032
					c0.102,0.011,0.209,0.043,0.326,0.102C543.815,231.427,543.923,231.503,544.021,231.591z"/>
			</g>
			<g>
				<path fill="#3D4352" d="M535.539,218.023l0.488,0.244l0.145-0.257l0.177,0.089l-0.507,0.83l-0.17-0.086l-0.42-1.292l0.168,0.084
					L535.539,218.023z M535.7,218.538c0.005,0.021,0.012,0.04,0.018,0.061c0.005,0.021,0.01,0.041,0.017,0.06
					c0.004,0.021,0.008,0.038,0.012,0.058c0.002,0.019,0.005,0.038,0.01,0.057c0.007-0.013,0.01-0.025,0.017-0.038
					c0.006-0.013,0.014-0.027,0.022-0.043c0.008-0.014,0.012-0.031,0.021-0.047c0.011-0.016,0.02-0.033,0.028-0.051l0.132-0.236
					l-0.397-0.198L535.7,218.538"/>
			</g>
			<g>
				<polygon fill="#3D4352" points="536.619,218.233 536.595,219.072 537.236,218.542 537.396,218.622 537.368,219.69 
					537.218,219.615 537.241,218.776 536.6,219.309 536.444,219.23 536.473,218.161 				"/>
			</g>
			<g>
				<path fill="#3D4352" d="M540.115,223.115c0.08,0.048,0.161,0.099,0.239,0.154c0.079,0.054,0.159,0.109,0.237,0.169
					c0.076,0.059,0.152,0.118,0.227,0.185c0.08,0.065,0.153,0.131,0.222,0.196c0.07,0.066,0.136,0.132,0.194,0.195
					s0.113,0.126,0.162,0.186c0.05,0.062,0.095,0.118,0.134,0.173l-0.041,1.423l-1.704-0.853l0.029-0.597l0.895,0.45l0.021-0.45
					c-0.028-0.037-0.058-0.072-0.091-0.109c-0.031-0.034-0.066-0.067-0.102-0.104c-0.035-0.035-0.072-0.069-0.111-0.105
					c-0.038-0.035-0.077-0.072-0.118-0.108c-0.042-0.038-0.082-0.072-0.126-0.104c-0.04-0.031-0.082-0.064-0.128-0.093
					c-0.042-0.03-0.086-0.057-0.128-0.08s-0.085-0.044-0.128-0.064c-0.081-0.047-0.161-0.08-0.236-0.104
					c-0.073-0.026-0.145-0.04-0.212-0.048c-0.066-0.008-0.13-0.004-0.188,0.008c-0.059,0.01-0.115,0.033-0.166,0.057
					c-0.054,0.027-0.103,0.062-0.146,0.108s-0.077,0.104-0.108,0.171c-0.028,0.066-0.053,0.143-0.068,0.229
					c-0.015,0.087-0.021,0.183-0.025,0.287c-0.004,0.099-0.002,0.194,0.009,0.287c0.01,0.093,0.025,0.182,0.05,0.267
					c0.025,0.09,0.054,0.172,0.093,0.251c0.037,0.081,0.081,0.157,0.131,0.231c0.05,0.076,0.103,0.149,0.162,0.217
					c0.059,0.068,0.122,0.132,0.19,0.193c0.066,0.058,0.139,0.113,0.214,0.162c0.076,0.05,0.155,0.097,0.239,0.137
					c0.057,0.032,0.11,0.055,0.164,0.079c0.055,0.021,0.105,0.034,0.156,0.047c0.047,0.01,0.094,0.019,0.136,0.021
					c0.043,0.002,0.081,0,0.116-0.007c0.042-0.006,0.079-0.015,0.115-0.029c0.032-0.015,0.064-0.031,0.094-0.052
					c0.026-0.024,0.052-0.046,0.074-0.077c0.021-0.028,0.041-0.062,0.058-0.096l0.779,0.533c-0.024,0.07-0.054,0.132-0.086,0.189
					c-0.035,0.053-0.073,0.103-0.118,0.144c-0.046,0.043-0.097,0.077-0.154,0.105c-0.057,0.027-0.12,0.049-0.188,0.062
					c-0.071,0.015-0.147,0.017-0.229,0.011c-0.084-0.005-0.173-0.023-0.271-0.047c-0.097-0.027-0.201-0.06-0.312-0.104
					c-0.111-0.044-0.23-0.095-0.357-0.154c-0.092-0.05-0.181-0.098-0.267-0.148c-0.085-0.051-0.166-0.104-0.242-0.156
					c-0.076-0.054-0.15-0.106-0.216-0.164c-0.067-0.055-0.129-0.11-0.188-0.171c-0.082-0.082-0.162-0.163-0.232-0.247
					c-0.073-0.082-0.139-0.167-0.199-0.252c-0.06-0.087-0.115-0.176-0.165-0.265c-0.051-0.091-0.096-0.184-0.136-0.278
					c-0.042-0.095-0.077-0.189-0.107-0.285c-0.032-0.095-0.06-0.188-0.08-0.283c-0.021-0.094-0.034-0.187-0.045-0.277
					c-0.01-0.094-0.014-0.186-0.013-0.275c0.007-0.088,0.016-0.169,0.028-0.248c0.014-0.08,0.029-0.152,0.05-0.222
					c0.021-0.068,0.048-0.136,0.077-0.197c0.033-0.062,0.068-0.119,0.111-0.172c0.044-0.054,0.087-0.101,0.139-0.142
					c0.05-0.042,0.104-0.076,0.162-0.105c0.059-0.027,0.121-0.049,0.188-0.064c0.067-0.017,0.14-0.024,0.217-0.026
					c0.073,0,0.153,0.008,0.236,0.021c0.084,0.013,0.173,0.03,0.262,0.056c0.091,0.025,0.184,0.056,0.282,0.094
					c0.097,0.039,0.197,0.084,0.303,0.137C539.955,223.022,540.033,223.068,540.115,223.115z"/>
			</g>
			<g>
				<path fill="#3D4352" d="M538.131,218.988c0.016,0.011,0.033,0.018,0.046,0.026c0.018,0.011,0.033,0.02,0.047,0.029
					c0.014,0.011,0.025,0.019,0.04,0.028c0.014,0.01,0.025,0.021,0.039,0.03c0.012,0.011,0.025,0.021,0.037,0.03
					c0.011,0.012,0.022,0.023,0.033,0.033c0.011,0.011,0.021,0.021,0.028,0.03c0.012,0.013,0.021,0.023,0.029,0.036
					c0.01,0.01,0.019,0.022,0.026,0.035c0.01,0.012,0.018,0.024,0.025,0.038c0.008,0.012,0.016,0.026,0.025,0.041
					c0.008,0.014,0.016,0.03,0.022,0.046c0.007,0.015,0.013,0.031,0.021,0.048c0.005,0.014,0.011,0.031,0.018,0.047
					c0.004,0.018,0.01,0.035,0.013,0.054c0.006,0.019,0.011,0.038,0.016,0.057c0.003,0.02,0.004,0.038,0.008,0.058
					c0.001,0.019,0.001,0.039,0.004,0.058c0.001,0.021,0.001,0.041,0,0.062c-0.003,0.022-0.003,0.047-0.005,0.068
					c-0.003,0.021-0.007,0.041-0.01,0.061c-0.005,0.021-0.01,0.037-0.018,0.054c-0.008,0.021-0.013,0.034-0.022,0.047
					c-0.008,0.017-0.017,0.028-0.028,0.039c-0.009,0.015-0.021,0.024-0.033,0.034c-0.01,0.009-0.022,0.019-0.037,0.025
					c-0.014,0.006-0.025,0.012-0.044,0.016c-0.013,0.005-0.025,0.005-0.038,0.007c-0.014,0.002-0.027,0.001-0.043,0.001
					s-0.03-0.003-0.046-0.005c-0.015-0.003-0.03-0.008-0.047-0.013c-0.01-0.003-0.026-0.008-0.04-0.013
					c-0.016-0.006-0.031-0.012-0.049-0.02c-0.018-0.006-0.035-0.016-0.056-0.025c-0.021-0.009-0.043-0.019-0.066-0.03l-0.403-0.2
					l0.03-1.07l0.426,0.211C538.096,218.97,538.113,218.979,538.131,218.988z M537.782,219.77l0.247,0.122
					c0.022,0.011,0.043,0.021,0.063,0.031c0.021,0.009,0.041,0.017,0.056,0.023c0.018,0.006,0.033,0.013,0.046,0.016
					c0.016,0.004,0.026,0.007,0.035,0.008c0.017,0.003,0.029,0.003,0.042,0.003c0.013-0.003,0.025-0.004,0.038-0.008
					c0.015-0.005,0.025-0.009,0.038-0.017c0.011-0.009,0.021-0.017,0.033-0.025c0.01-0.012,0.018-0.024,0.028-0.038
					c0.007-0.017,0.013-0.03,0.021-0.05c0.005-0.019,0.007-0.04,0.012-0.063c0.003-0.022,0.006-0.049,0.006-0.076
					c0-0.02,0-0.039,0-0.06c0-0.019-0.002-0.038-0.004-0.056s-0.004-0.035-0.009-0.055c-0.003-0.017-0.005-0.034-0.011-0.051
					c-0.005-0.018-0.01-0.034-0.015-0.048c-0.007-0.017-0.013-0.034-0.019-0.047c-0.007-0.014-0.015-0.03-0.022-0.043
					c-0.009-0.015-0.018-0.028-0.025-0.041c-0.008-0.01-0.013-0.018-0.022-0.028c-0.008-0.009-0.016-0.018-0.024-0.026
					c-0.009-0.008-0.019-0.018-0.026-0.027c-0.012-0.008-0.021-0.016-0.032-0.025c-0.009-0.008-0.022-0.017-0.033-0.025
					c-0.015-0.01-0.027-0.019-0.043-0.028c-0.015-0.008-0.03-0.018-0.048-0.025c-0.018-0.01-0.037-0.021-0.058-0.029l-0.25-0.126
					L537.782,219.77"/>
			</g>
			<g>
				<polygon fill="#3D4352" points="539.564,219.703 539.559,219.833 538.982,219.542 538.955,220.483 538.8,220.405 
					538.829,219.335 				"/>
			</g>
			<g>
				<polygon fill="#3D4352" points="543.033,224.632 542.929,228.199 542.139,227.803 542.24,224.236 				"/>
			</g>
			<g>
				<polygon fill="#3D4352" points="540.625,220.232 540.62,220.362 539.9,220 539.892,220.364 540.539,220.688 540.534,220.812 
					539.888,220.491 539.879,220.817 540.572,221.165 540.569,221.288 539.719,220.864 539.749,219.796 				"/>
			</g>
			<g>
				<path fill="#3D4352" d="M541.654,220.746l0.227,0.942c0.001,0.009,0.005,0.019,0.006,0.03c0.003,0.012,0.004,0.021,0.008,0.033
					c0.004,0.012,0.006,0.026,0.008,0.037c0.004,0.014,0.008,0.026,0.009,0.043c0.003-0.007,0.004-0.011,0.005-0.017
					c0.003-0.007,0.005-0.014,0.008-0.023c0.004-0.009,0.008-0.02,0.012-0.031c0.006-0.012,0.011-0.022,0.015-0.038l0.274-0.691
					l0.149,0.073l0.288,1.229l-0.154-0.077l-0.164-0.779c-0.005-0.024-0.01-0.05-0.016-0.072c-0.005-0.022-0.01-0.046-0.015-0.066
					c-0.003-0.022-0.008-0.043-0.011-0.064c-0.005-0.019-0.007-0.039-0.01-0.06c-0.008,0.028-0.013,0.056-0.021,0.084
					c-0.007,0.027-0.015,0.056-0.022,0.084c-0.008,0.027-0.018,0.056-0.028,0.083c-0.01,0.028-0.021,0.057-0.032,0.084l-0.182,0.458
					l-0.189-0.095l-0.199-0.831c-0.003-0.006-0.005-0.015-0.007-0.025c-0.003-0.013-0.006-0.028-0.011-0.046
					c-0.003-0.021-0.008-0.042-0.013-0.068c-0.005-0.025-0.013-0.054-0.02-0.087c-0.002,0.017-0.009,0.033-0.011,0.05
					c-0.006,0.017-0.011,0.033-0.013,0.05c-0.006,0.016-0.011,0.032-0.016,0.049s-0.01,0.032-0.016,0.047l-0.197,0.611l-0.161-0.08
					l0.344-0.913L541.654,220.746z"/>
			</g>
			<g>
				<polygon fill="#3D4352" points="543.021,221.427 542.99,222.497 542.835,222.421 542.867,221.351 				"/>
			</g>
			<g>
				<path fill="#3D4352" d="M549.498,242.856l-11.223-5.634l0.293-10.33l11.24,5.622L549.498,242.856z M539.01,236.931l9.789,4.914
					l0.271-9.036l-9.802-4.906L539.01,236.931"/>
			</g>
			<g>
				<polygon fill="#3D4352" points="543.752,221.792 543.724,222.738 544.111,222.93 544.107,223.056 543.177,222.59 
					543.181,222.466 543.568,222.659 543.596,221.715 				"/>
			</g>
			<g>
				<polygon fill="#3D4352" points="546.57,226.401 546.553,227.001 544.583,226.016 544.497,228.955 543.705,228.556 
					543.808,225.02 				"/>
			</g>
			<g>
				<polygon fill="#3D4352" points="544.456,222.145 544.442,222.649 545.054,222.955 545.07,222.452 545.224,222.527 
					545.193,223.597 545.037,223.521 545.05,223.081 544.438,222.776 544.426,223.213 544.272,223.137 544.303,222.069 				"/>
			</g>
			<g>
				<path fill="#3D4352" d="M546.531,223.167c0.028,0.019,0.056,0.036,0.081,0.059c0.025,0.02,0.05,0.042,0.073,0.065
					s0.045,0.049,0.065,0.074s0.041,0.053,0.056,0.08c0.018,0.026,0.033,0.056,0.05,0.087c0.012,0.028,0.024,0.058,0.035,0.091
					c0.011,0.03,0.021,0.063,0.027,0.094l-0.155-0.04c-0.005-0.025-0.01-0.047-0.018-0.072c-0.009-0.023-0.017-0.047-0.028-0.069
					c-0.007-0.022-0.021-0.045-0.032-0.063c-0.01-0.021-0.024-0.04-0.039-0.058c-0.015-0.021-0.031-0.038-0.048-0.057
					c-0.017-0.016-0.033-0.032-0.052-0.047c-0.018-0.014-0.037-0.029-0.059-0.042c-0.018-0.011-0.039-0.023-0.061-0.035
					c-0.019-0.009-0.036-0.016-0.054-0.022c-0.016-0.007-0.035-0.013-0.051-0.016c-0.018-0.005-0.033-0.009-0.048-0.01
					c-0.019-0.002-0.033-0.002-0.047-0.002c-0.016,0.002-0.032,0.004-0.045,0.008c-0.014,0.004-0.026,0.011-0.039,0.016
					c-0.011,0.008-0.021,0.017-0.032,0.026c-0.009,0.01-0.017,0.022-0.023,0.035c-0.011,0.013-0.017,0.027-0.023,0.044
					c-0.005,0.015-0.011,0.031-0.015,0.049c-0.006,0.019-0.008,0.037-0.011,0.059c-0.002,0.021-0.005,0.042-0.005,0.063
					c0,0.02,0,0.037,0.003,0.054c0,0.019,0.002,0.039,0.005,0.057c0.002,0.02,0.008,0.037,0.01,0.055
					c0.003,0.021,0.008,0.039,0.013,0.06c0.007,0.02,0.013,0.041,0.023,0.058c0.007,0.02,0.018,0.039,0.027,0.058
					c0.011,0.02,0.023,0.037,0.033,0.055c0.013,0.017,0.028,0.036,0.043,0.054c0.013,0.017,0.03,0.034,0.045,0.05
					c0.019,0.015,0.035,0.03,0.053,0.045c0.021,0.015,0.038,0.028,0.059,0.041s0.043,0.025,0.064,0.035
					c0.02,0.011,0.04,0.02,0.058,0.027c0.018,0.006,0.035,0.011,0.051,0.014c0.017,0.004,0.033,0.005,0.048,0.005
					c0.013,0.002,0.028,0,0.041-0.002c0.013-0.003,0.025-0.006,0.038-0.012c0.009-0.007,0.021-0.014,0.033-0.021
					c0.009-0.011,0.02-0.021,0.029-0.034c0.007-0.012,0.018-0.027,0.026-0.042l0.148,0.109c-0.008,0.021-0.018,0.04-0.029,0.057
					s-0.024,0.03-0.038,0.041c-0.016,0.013-0.029,0.023-0.048,0.031c-0.017,0.007-0.037,0.015-0.058,0.018s-0.043,0.004-0.064,0.002
					c-0.024,0-0.046-0.004-0.071-0.008c-0.025-0.007-0.051-0.014-0.079-0.025c-0.027-0.009-0.056-0.021-0.086-0.037
					c-0.025-0.013-0.051-0.025-0.076-0.04c-0.022-0.016-0.048-0.034-0.071-0.049c-0.023-0.018-0.047-0.035-0.068-0.056
					c-0.024-0.021-0.044-0.041-0.064-0.063c-0.023-0.021-0.043-0.043-0.062-0.065c-0.02-0.021-0.035-0.045-0.052-0.07
					c-0.017-0.023-0.031-0.049-0.044-0.073c-0.013-0.025-0.027-0.051-0.037-0.079c-0.012-0.026-0.02-0.053-0.029-0.081
					c-0.008-0.024-0.013-0.052-0.02-0.08c-0.003-0.025-0.006-0.053-0.01-0.081c-0.001-0.025-0.001-0.054-0.001-0.081
					c0-0.025,0.002-0.051,0.005-0.074s0.008-0.045,0.013-0.068c0.008-0.021,0.013-0.04,0.022-0.061
					c0.008-0.02,0.019-0.038,0.028-0.056c0.012-0.016,0.022-0.031,0.038-0.045c0.013-0.013,0.028-0.024,0.043-0.033
					c0.017-0.011,0.033-0.018,0.051-0.022s0.034-0.01,0.056-0.012c0.02-0.001,0.044-0.001,0.066,0.002
					c0.022,0.002,0.047,0.007,0.072,0.015c0.026,0.007,0.054,0.016,0.081,0.025c0.03,0.012,0.062,0.026,0.093,0.042
					C546.477,223.133,546.506,223.15,546.531,223.167z"/>
			</g>
			<g>
				<polygon fill="#3D4352" points="550.124,228.175 550.105,228.777 547.911,227.679 547.884,228.653 549.855,229.638 
					549.837,230.24 547.863,229.253 547.842,230.044 549.96,231.104 549.942,231.706 547.03,230.25 547.137,226.683 				"/>
			</g>
			<g>
				<path fill="#3D4352" d="M547.279,223.882l0.492,0.245l0.144-0.258l0.178,0.089l-0.513,0.832l-0.17-0.085l-0.415-1.294
					l0.165,0.081L547.279,223.882z M547.438,224.397c0.008,0.021,0.013,0.04,0.021,0.061c0.004,0.021,0.008,0.041,0.013,0.06
					c0.005,0.02,0.009,0.039,0.013,0.06c0.004,0.018,0.008,0.038,0.011,0.056c0.005-0.013,0.012-0.025,0.018-0.038
					c0.008-0.013,0.013-0.027,0.02-0.043c0.008-0.015,0.016-0.03,0.025-0.048c0.01-0.016,0.02-0.033,0.028-0.051l0.134-0.235
					l-0.399-0.197L547.438,224.397"/>
			</g>
			<g>
				<polygon fill="#3D4352" points="550.083,226.569 550.053,227.574 526.673,215.894 526.699,214.89 				"/>
			</g>
			<g>
				<path fill="#3D4352" d="M548.36,224.577l0.181,0.089c0.013,0.005,0.021,0.011,0.029,0.016c0.008,0.004,0.017,0.008,0.023,0.01
					c0.008,0.004,0.015,0.007,0.021,0.008c0.004,0.003,0.009,0.005,0.015,0.007l0.07,0.009c0.008-0.002,0.013-0.003,0.02-0.006
					c0.006,0,0.014-0.002,0.019-0.005c0.007-0.002,0.013-0.005,0.021-0.01c0.008-0.004,0.016-0.008,0.024-0.013
					c0.008-0.005,0.015-0.011,0.021-0.018c0.01-0.006,0.019-0.013,0.028-0.021c0.011-0.008,0.02-0.018,0.031-0.025
					c0.01-0.011,0.021-0.02,0.034-0.03l0.162-0.145l0.196,0.098l-0.214,0.191c-0.011,0.008-0.021,0.017-0.032,0.022
					c-0.011,0.008-0.021,0.016-0.032,0.023c-0.012,0.005-0.022,0.01-0.034,0.015c-0.01,0.008-0.023,0.012-0.035,0.016
					c-0.004,0.001-0.011,0.002-0.017,0.005c-0.008,0-0.013,0.001-0.021,0.001s-0.018,0-0.027,0s-0.02,0-0.03,0
					c0.029,0.02,0.054,0.036,0.079,0.055c0.026,0.018,0.048,0.034,0.068,0.054c0.021,0.021,0.038,0.039,0.056,0.057
					c0.017,0.021,0.033,0.04,0.046,0.059c0.013,0.021,0.022,0.041,0.033,0.059c0.009,0.021,0.017,0.038,0.022,0.059
					c0.005,0.019,0.011,0.038,0.016,0.058c0.002,0.019,0.005,0.038,0.005,0.058c-0.003,0.016-0.004,0.029-0.006,0.042
					c-0.004,0.013-0.008,0.025-0.012,0.035c-0.003,0.013-0.009,0.024-0.017,0.033c-0.005,0.009-0.014,0.02-0.021,0.028
					c-0.009,0.006-0.02,0.014-0.028,0.02c-0.01,0.006-0.021,0.011-0.033,0.013c-0.01,0.003-0.022,0.006-0.034,0.006
					c-0.013,0-0.025,0-0.039-0.004c-0.014-0.002-0.029-0.004-0.044-0.009c-0.02-0.006-0.037-0.012-0.058-0.02
					s-0.04-0.017-0.063-0.026c-0.024-0.011-0.047-0.021-0.073-0.036l-0.522-0.259l0.033-1.069l0.155,0.077L548.36,224.577z
					 M548.347,225.053l0.37,0.185c0.024,0.013,0.045,0.022,0.063,0.028c0.02,0.008,0.038,0.014,0.053,0.018
					c0.016,0.003,0.031,0.005,0.044,0.005s0.025,0,0.035-0.002c0.013-0.004,0.019-0.008,0.028-0.014
					c0.006-0.006,0.014-0.012,0.02-0.02c0.005-0.008,0.009-0.018,0.012-0.028c0.003-0.01,0.006-0.022,0.006-0.035
					c0-0.01,0-0.018-0.003-0.028c0-0.007-0.003-0.018-0.005-0.025c-0.003-0.01-0.005-0.019-0.008-0.027
					c-0.005-0.012-0.012-0.021-0.016-0.03c-0.005-0.011-0.007-0.021-0.016-0.028c-0.006-0.012-0.011-0.021-0.021-0.03
					c-0.008-0.011-0.016-0.018-0.025-0.028c-0.008-0.008-0.017-0.015-0.025-0.023c-0.012-0.009-0.023-0.017-0.034-0.025
					c-0.013-0.008-0.025-0.016-0.04-0.024c-0.014-0.009-0.027-0.017-0.043-0.025c-0.017-0.009-0.033-0.018-0.052-0.026l-0.331-0.168
					L548.347,225.053"/>
			</g>
			<g>
				<polygon fill="#3D4352" points="550.283,225.053 550.278,225.181 549.559,224.821 549.549,225.185 550.198,225.51 
					550.195,225.635 549.544,225.312 549.535,225.638 550.228,225.982 550.224,226.11 549.376,225.686 549.406,224.615 				"/>
			</g>
			<g>
				<polygon fill="#3D4352" points="550.253,223.404 550.223,224.412 526.831,212.74 526.859,211.735 				"/>
			</g>
		</g>
	</g>
</g>
</svg>
