<?xml version="1.0" encoding="utf-8"?>
<!-- Generator: Adobe Illustrator 15.1.0, SVG Export Plug-In . SVG Version: 6.00 Build 0)  -->
<!DOCTYPE svg PUBLIC "-//W3C//DTD SVG 1.1//EN" "http://www.w3.org/Graphics/SVG/1.1/DTD/svg11.dtd">
<svg version="1.1"
	 id="svg1" xmlns:rdf="http://www.w3.org/1999/02/22-rdf-syntax-ns#" xmlns:cc="http://creativecommons.org/ns#" xmlns:dc="http://purl.org/dc/elements/1.1/"
	 xmlns="http://www.w3.org/2000/svg" xmlns:xlink="http://www.w3.org/1999/xlink" x="0px" y="0px" width="20px" height="20px"
	 viewBox="0 0 20 20" enable-background="new 0 0 20 20" xml:space="preserve">
<rect id="rect124" fill="#CC0000" width="20" height="20"/>
<polygon fill="#0D874C" points="10,12.004 17.997,20 20,20 20,20 20,17.996 12.003,10 20,2.004 20,0 17.996,0 10,7.997 2.003,0 0,0 
	0,2.004 7.996,10 0,17.996 0,20 2.004,20 "/>
<polygon fill="#FFFFFF" points="8.583,20 11.417,20 11.417,11.417 20,11.417 20,8.584 11.417,8.584 11.417,0 8.583,0 8.583,8.584 
	0,8.584 0,11.417 8.583,11.417 "/>
</svg>
