<?xml version="1.0" encoding="utf-8"?>
<!-- Generator: Adobe Illustrator 15.1.0, SVG Export Plug-In . SVG Version: 6.00 Build 0)  -->
<!DOCTYPE svg PUBLIC "-//W3C//DTD SVG 1.1//EN" "http://www.w3.org/Graphics/SVG/1.1/DTD/svg11.dtd">
<svg version="1.1"
	 id="svg1" xmlns:rdf="http://www.w3.org/1999/02/22-rdf-syntax-ns#" xmlns:cc="http://creativecommons.org/ns#" xmlns:dc="http://purl.org/dc/elements/1.1/"
	 xmlns="http://www.w3.org/2000/svg" xmlns:xlink="http://www.w3.org/1999/xlink" x="0px" y="0px" width="20px" height="20px"
	 viewBox="0 0 20 20" enable-background="new 0 0 20 20" xml:space="preserve">
<rect id="rect124" y="0" fill="#000066" width="20" height="20"/>
<g>
	<polygon fill="#FFFFFF" points="20,17.232 20,12.76 14.48,10 10.005,12.237 	"/>
	<polygon fill="#FFFFFF" points="0,12.762 0,17.24 10.005,12.237 5.527,10 	"/>
	<polygon fill="#FFFFFF" points="20,2.767 10.005,7.762 14.48,10 20,7.24 	"/>
	<polygon fill="#FFFFFF" points="0,2.759 0,7.237 5.527,10 10.005,7.762 	"/>
</g>
<polygon fill="#FFFFFF" points="20,13.328 20,6.656 13.328,6.656 13.328,0 6.656,0 6.656,6.656 0,6.656 0,13.328 6.656,13.328 
	6.656,20 13.328,20 13.328,13.328 "/>
<polygon fill="#CC0000" points="20,12 20,8 12,8 12,0 8.001,0 8.001,8 0,8 0,12 8.001,12 8.001,20 12,20 12,12 "/>
<g>
	<polygon fill="#CC0000" points="5.328,6.672 0,4.005 0,5.995 1.353,6.672 	"/>
	<polygon fill="#CC0000" points="5.305,13.328 1.328,13.328 0,13.993 0,15.983 	"/>
	<polygon fill="#CC0000" points="14.68,6.672 18.672,6.672 20,6.007 20,4.009 	"/>
	<polygon fill="#CC0000" points="14.672,13.328 20,15.995 20,14.003 18.648,13.328 	"/>
</g>
</svg>
