<?xml version="1.0" encoding="utf-8"?>
<!-- Generator: Adobe Illustrator 15.1.0, SVG Export Plug-In . SVG Version: 6.00 Build 0)  -->
<!DOCTYPE svg PUBLIC "-//W3C//DTD SVG 1.1//EN" "http://www.w3.org/Graphics/SVG/1.1/DTD/svg11.dtd">
<svg version="1.1" id="Layer_1" xmlns="http://www.w3.org/2000/svg" xmlns:xlink="http://www.w3.org/1999/xlink" x="0px" y="0px"
	 width="600px" height="600px" viewBox="0 0 600 600" enable-background="new 0 0 600 600" xml:space="preserve">
<g>
	<path fill="#00A79D" d="M104.77,354.906c-27.293,0-49.425,22.126-49.425,49.426c0,19.792,11.643,36.864,28.446,44.754
		c3.711-7.737,5.378-15.652,5.378-20.624v-18.843l15.601-0.002v0.002h15.605v18.843c0,4.972,1.666,12.887,5.378,20.624
		c16.806-7.892,28.446-24.96,28.446-44.754C154.2,377.032,132.067,354.906,104.77,354.906z M117.576,405.595H91.969l-0.002-30.189
		l25.609,13.402V405.595z"/>
	<path fill="#F7941E" d="M284.352,396.881c-2.575-24.954-23.663-44.413-49.295-44.413c-26.223,0-47.688,20.363-49.443,46.143
		c3.123,1.156,6.087,1.56,8.934,1.224c9.222-1.094,16.071-9.896,22.691-18.406c4.962-6.377,9.649-12.399,15.252-15.118
		c3.528-1.714,7.556-2.432,11.646-2.081c3.82,0.328,7.623,1.568,10.991,3.59c3.127,1.876,5.783,4.373,7.68,7.222
		c2.036,3.061,3.183,6.527,3.319,10.022c0.079,2.063,0.077,2.271,0.051,2.906c-0.01,0.213-0.02,0.489-0.03,0.979h-3.724
		c0.01-0.57,0.024-0.892,0.032-1.129c0.02-0.506,0.026-0.624-0.051-2.614c-0.213-5.563-3.652-10.87-9.192-14.195
		c-6.038-3.621-13.354-4.136-19.096-1.351c-4.825,2.344-9.252,8.032-13.941,14.058c-3.421,4.398-6.961,8.949-10.971,12.6
		c-4.697,4.278-9.349,6.638-14.219,7.215c-0.778,0.095-1.568,0.14-2.363,0.14c-2.32,0-4.705-0.393-7.124-1.171
		c0.243,26.287,20.954,47.685,46.967,49.023c-1.855-21.26,1.777-45.679,13.157-54.216
		C256.063,389.473,274.476,390.549,284.352,396.881z M264.521,400.035h-1.24c-1.366,0-2.483,1.116-2.483,2.48v14.151
		c0,1.364,1.117,2.48,2.483,2.48h1.24c1.366,0,2.481-1.116,2.481-2.48v-14.151C267.003,401.151,265.888,400.035,264.521,400.035z"/>
	<path fill="#8DC63F" d="M387.89,358.141v56.478h-10.168l-15.327-38.133h15.327v-22.282c-4.036-1.064-8.272-1.635-12.644-1.635
		c-27.297,0-49.428,22.129-49.428,49.426c0,19.072,10.8,35.617,26.616,43.857v-56.478h10.168l15.324,38.137h-15.324v22.278
		c4.035,1.065,8.272,1.635,12.644,1.635c27.297,0,49.425-22.129,49.425-49.43C414.503,382.928,403.704,366.381,387.89,358.141z"/>
	<path fill="#BE1E2D" d="M495.228,352.568c-27.297,0-49.425,22.129-49.425,49.426c0,27.301,22.128,49.43,49.425,49.43
		c27.3,0,49.428-22.129,49.428-49.43C544.655,374.697,522.527,352.568,495.228,352.568z M520.348,406.586
		c-0.212,1.434-2.44,2.747-3.853,3.353c-1.944,0.833-3.772,1.043-5.865,1.339c1.801,1.994,2.199,5.805,2.847,9.884
		c0.999,6.286,2.137,13.326,3.187,19.437c-0.357-0.08-0.762,0.109-1.173,0c-0.651-0.169-0.628-0.602-0.837-1.34
		c-1.07-3.752-2.784-28.154-9.048-27.479c-3.528-0.41-9.092,0.214-13.238,0c-3.022-0.149-9.526-0.596-10.891,1.341
		c-1.03,1.463-5.463,20.634-6.197,24.462c-0.219,1.144,0.01,3.289-2.012,2.68c0.055-2.093,0.604-4.269,1.007-6.531
		c0.771-4.355,1.689-8.845,2.514-13.236c0.7-3.743,0.811-7.212,3.015-9.382c-3.205-0.564-6.902-1.532-8.713-3.521
		c-0.49-0.538-0.976-1.013-1.005-1.844c-0.052-1.353,1.56-3.019,2.515-3.517c1.623-0.851,4.075-0.899,6.03-0.671
		c3.894,0.454,7.708,2.978,10.891,3.519c0.389-2.962,0.528-6.172,0.671-9.384c-7.299-0.143-13.121-0.241-13.739-6.703
		c-0.249-2.591,0.503-5.558,1.171-8.375c0.932-3.929,1.78-8.042,5.863-8.713c2.539-0.419,6.271,0,9.722,0
		c3.356,0,6.744,0.124,9.548,0c3.155-0.141,5.951-0.071,7.54,1.676c1.256,1.378,1.858,4.261,2.514,6.871
		c0.706,2.812,1.492,5.453,1.343,8.039c-0.392,6.666-6.154,7.007-13.744,7.037c-0.132,3.431,0.365,6.227,0.338,9.552
		c3.351,0.01,7.641-3.084,11.728-3.521c2.077-0.223,4.409,0,5.864,1.005C519.25,403.194,520.584,404.993,520.348,406.586z"/>
	<g>
		<g>
			<path fill="#414042" d="M194.298,243.566c-0.699-37.87-31.7-68.462-69.733-68.462c-38.468,0-69.765,31.299-69.765,69.769
				c0,38.472,31.297,69.767,69.765,69.767c19.745,0,37.581-8.255,50.286-21.479v21.78h19.483v-71.375H194.298z M124.565,295.159
				c-27.729,0-50.287-22.559-50.287-50.287s22.557-50.286,50.287-50.286c27.731,0,50.286,22.559,50.286,50.286
				S152.296,295.159,124.565,295.159z"/>
			<path fill="#414042" d="M344.191,235.131c-4.756-33.877-33.915-60.03-69.076-60.03c-35.163,0-64.32,26.152-69.074,60.03
				c-0.448,3.181-0.691,6.43-0.691,9.735c0,3.311,0.243,6.557,0.691,9.744c4.754,33.872,33.911,60.029,69.074,60.029
				c19.238,0,36.662-7.84,49.289-20.478l-13.759-13.759c-9.102,9.105-21.662,14.752-35.53,14.752
				c-24.395,0-44.782-17.463-49.335-40.544h98.666h19.745c0.446-3.187,0.689-6.433,0.689-9.744
				C344.881,241.562,344.638,238.312,344.191,235.131z M225.781,235.131c4.553-23.084,24.94-40.549,49.335-40.549
				c24.391,0,44.778,17.465,49.331,40.549H225.781z"/>
			<path fill="#414042" d="M495.436,148.478H475.95v48.407c-12.704-13.224-30.541-21.477-50.288-21.477
				c-38.472,0-69.769,31.295-69.769,69.767c0,38.47,31.297,69.767,69.769,69.767c38.474,0,69.773-31.297,69.773-69.767
				c0-0.219-0.014-0.435-0.019-0.653h0.019V148.478z M425.662,295.463c-27.724,0-50.284-22.559-50.284-50.288
				s22.561-50.288,50.284-50.288c27.729,0,50.288,22.559,50.288,50.288S453.392,295.463,425.662,295.463z"/>
			<path fill="#414042" d="M531.336,175.724c-7.889,0-13.148-6.219-13.148-13.631c0-7.408,5.5-13.386,13.625-13.386
				c8.124,0,13.388,5.978,13.388,13.386c0,7.412-5.264,13.631-13.627,13.631H531.336z"/>
			<rect x="521.295" y="199.001" fill="#414042" width="21.039" height="115.94"/>
		</g>
	</g>
</g>
</svg>
